<svg width="512" height="512" viewBox="0 0 512 512" fill="none" xmlns="http://www.w3.org/2000/svg" xmlns:xlink="http://www.w3.org/1999/xlink" class="h-full w-full" id="iconWithBackground"><rect id="r4" width="502" height="502" x="5" y="5" rx="35" fill="#e5ebff" stroke="#000000" stroke-width="10" stroke-opacity="9%" paint-order="stroke"></rect><defs><linearGradient id="linearGradient" gradientUnits="userSpaceOnUse" gradientTransform="rotate(0)" style="transform-origin: center center;"><stop stop-color="#8e2de2"></stop><stop offset="1" stop-color="#4a00e0"></stop></linearGradient><radialGradient id="glare" cx="0" cy="0" r="1" gradientUnits="userSpaceOnUse" gradientTransform="translate(256) rotate(90) scale(512)"><stop stop-color="white"></stop><stop offset="1" stop-color="white" stop-opacity="0"></stop></radialGradient><clipPath id="clip"><use xlink:href="#r4"></use></clipPath></defs><svg xmlns="http://www.w3.org/2000/svg" xmlns:xlink="http://www.w3.org/1999/xlink" aria-hidden="true" role="img" x="0" y="0" class="iconify iconify--logos" width="512" height="512" viewBox="0 0 256 384" style="color: rgb(0, 0, 0);"><path fill="#0ACF83" d="M64 384c35.328 0 64-28.672 64-64v-64H64c-35.328 0-64 28.672-64 64s28.672 64 64 64Z"></path><path fill="#A259FF" d="M0 192c0-35.328 28.672-64 64-64h64v128H64c-35.328 0-64-28.672-64-64Z"></path><path fill="#F24E1E" d="M0 64C0 28.672 28.672 0 64 0h64v128H64C28.672 128 0 99.328 0 64Z"></path><path fill="#FF7262" d="M128 0h64c35.328 0 64 28.672 64 64s-28.672 64-64 64h-64V0Z"></path><path fill="#1ABCFE" d="M256 192c0 35.328-28.672 64-64 64s-64-28.672-64-64s28.672-64 64-64s64 28.672 64 64Z"></path></svg></svg>