<svg width="512" height="512" viewBox="0 0 512 512" fill="none" xmlns="http://www.w3.org/2000/svg" xmlns:xlink="http://www.w3.org/1999/xlink" class="h-full w-full" id="iconWithBackground"><rect id="r4" width="502" height="502" x="5" y="5" rx="35" fill="#e5ebff" stroke="#000000" stroke-width="10" stroke-opacity="9%" paint-order="stroke"></rect><defs><linearGradient id="linearGradient" gradientUnits="userSpaceOnUse" gradientTransform="rotate(0)" style="transform-origin: center center;"><stop stop-color="#8e2de2"></stop><stop offset="1" stop-color="#4a00e0"></stop></linearGradient><radialGradient id="glare" cx="0" cy="0" r="1" gradientUnits="userSpaceOnUse" gradientTransform="translate(256) rotate(90) scale(512)"><stop stop-color="white"></stop><stop offset="1" stop-color="white" stop-opacity="0"></stop></radialGradient><clipPath id="clip"><use xlink:href="#r4"></use></clipPath></defs><svg xmlns="http://www.w3.org/2000/svg" xmlns:xlink="http://www.w3.org/1999/xlink" aria-hidden="true" role="img" x="0" y="0" class="iconify iconify--bi" width="512" height="512" viewBox="0 0 16 16" style="color: rgb(0, 0, 0);"><path fill="currentColor" d="M8 0C3.58 0 0 3.58 0 8c0 3.54 2.29 6.53 5.47 7.59c.4.07.55-.17.55-.38c0-.19-.01-.82-.01-1.49c-2.01.37-2.53-.49-2.69-.94c-.09-.23-.48-.94-.82-1.13c-.28-.15-.68-.52-.01-.53c.63-.01 1.08.58 1.23.82c.72 1.21 1.87.87 2.33.66c.07-.52.28-.87.51-1.07c-1.78-.2-3.64-.89-3.64-3.95c0-.87.31-1.59.82-2.15c-.08-.2-.36-1.02.08-2.12c0 0 .67-.21 2.2.82c.64-.18 1.32-.27 2-.27c.68 0 1.36.09 2 .27c1.53-1.04 2.2-.82 2.2-.82c.44 1.1.16 1.92.08 2.12c.51.56.82 1.27.82 2.15c0 3.07-1.87 3.75-3.65 3.95c.29.25.54.73.54 1.48c0 1.07-.01 1.93-.01 2.2c0 .21.15.46.55.38A8.012 8.012 0 0 0 16 8c0-4.42-3.58-8-8-8z"></path></svg></svg>