<svg width="512" height="512" viewBox="0 0 512 512" fill="none" xmlns="http://www.w3.org/2000/svg" xmlns:xlink="http://www.w3.org/1999/xlink" class="h-full w-full" id="iconWithBackground"><rect id="r4" width="502" height="502" x="5" y="5" rx="35" fill="#e5ebff" stroke="#000000" stroke-width="10" stroke-opacity="9%" paint-order="stroke"></rect><defs><linearGradient id="linearGradient" gradientUnits="userSpaceOnUse" gradientTransform="rotate(0)" style="transform-origin: center center;"><stop stop-color="#8e2de2"></stop><stop offset="1" stop-color="#4a00e0"></stop></linearGradient><radialGradient id="glare" cx="0" cy="0" r="1" gradientUnits="userSpaceOnUse" gradientTransform="translate(256) rotate(90) scale(512)"><stop stop-color="white"></stop><stop offset="1" stop-color="white" stop-opacity="0"></stop></radialGradient><clipPath id="clip"><use xlink:href="#r4"></use></clipPath></defs><svg xmlns="http://www.w3.org/2000/svg" xmlns:xlink="http://www.w3.org/1999/xlink" aria-hidden="true" role="img" x="0" y="0" class="iconify iconify--devicon" width="512" height="512" viewBox="0 0 128 128" style="color: rgb(168, 85, 247);"><path fill="#1FA6CA" d="M.2 68.6V13.4L48 41v18.4L16.1 41v36.8L.2 68.6z"></path><path fill="#1C7FB6" d="m48 41l47.9-27.6v55.3L64 87l-16-9.2l32-18.4V41L48 59.4V41z"></path><path fill="#1FA6CA" d="M48 77.8v18.4l32 18.4V96.2L48 77.8z"></path><path fill="#1C7FB6" d="M80 114.6L127.8 87V50.2l-16 9.2v18.4L80 96.2v18.4zM111.9 41V22.6l16-9.2v18.4l-16 9.2z"></path></svg></svg>