<svg width="512" height="512" viewBox="0 0 512 512" fill="none" xmlns="http://www.w3.org/2000/svg" xmlns:xlink="http://www.w3.org/1999/xlink" class="h-full w-full" id="iconWithBackground"><rect id="r4" width="502" height="502" x="5" y="5" rx="35" fill="#e5ebff" stroke="#000000" stroke-width="10" stroke-opacity="9%" paint-order="stroke"></rect><defs><linearGradient id="linearGradient" gradientUnits="userSpaceOnUse" gradientTransform="rotate(0)" style="transform-origin: center center;"><stop stop-color="#8e2de2"></stop><stop offset="1" stop-color="#4a00e0"></stop></linearGradient><radialGradient id="glare" cx="0" cy="0" r="1" gradientUnits="userSpaceOnUse" gradientTransform="translate(256) rotate(90) scale(512)"><stop stop-color="white"></stop><stop offset="1" stop-color="white" stop-opacity="0"></stop></radialGradient><clipPath id="clip"><use xlink:href="#r4"></use></clipPath></defs><svg xmlns="http://www.w3.org/2000/svg" xmlns:xlink="http://www.w3.org/1999/xlink" aria-hidden="true" role="img" x="0" y="0" class="iconify iconify--skill-icons" width="512" height="512" viewBox="0 0 256 256" style="color: rgb(107, 114, 128);"><g fill="none"><rect width="256" height="256" fill="#023430" rx="60"></rect><path fill="#10AA50" d="M171.173 107.591c-10.537-46.481-32.497-58.855-38.099-67.602A99.398 99.398 0 0 1 126.949 28c-.296 4.13-.84 6.73-4.35 9.862c-7.047 6.283-36.977 30.673-39.496 83.486c-2.347 49.242 36.2 79.605 41.292 82.744c3.916 1.927 8.685.041 11.012-1.728c18.581-12.752 43.969-46.75 35.786-94.773"></path><path fill="#B8C4C2" d="M128.545 177.871c-.97 12.188-1.665 19.27-4.129 26.235c0 0 1.617 11.603 2.753 23.894h4.019a223.446 223.446 0 0 1 4.384-25.732c-5.203-2.56-6.827-13.702-7.027-24.397Z"></path><path fill="#12924F" d="M135.565 202.275c-5.258-2.429-6.779-13.806-7.013-24.404a499.824 499.824 0 0 0 1.136-52.545c-.276-9.194.13-85.158-2.265-96.28a92.425 92.425 0 0 0 5.651 10.936c5.602 8.754 27.569 21.128 38.099 67.609c8.203 47.941-17.047 81.849-35.608 94.684Z"></path></g></svg></svg>